<svg xmlns="http://www.w3.org/2000/svg" width="878" height="1088" viewBox="0 0 878 1088" font-family="ui-sans-serif,Arial,sans-serif"><rect width="100%" height="100%" fill="#fbfbfa"/><line x1="54" y1="54" x2="54" y2="1034" stroke="#c9c9c9" stroke-width="1.2"/><text x="54" y="46" font-size="11" fill="#999" text-anchor="middle">-300</text><line x1="124" y1="54" x2="124" y2="1034" stroke="#e6e6e6" stroke-width="0.6"/><line x1="194" y1="54" x2="194" y2="1034" stroke="#c9c9c9" stroke-width="1.2"/><text x="194" y="46" font-size="11" fill="#999" text-anchor="middle">-200</text><line x1="264" y1="54" x2="264" y2="1034" stroke="#e6e6e6" stroke-width="0.6"/><line x1="334" y1="54" x2="334" y2="1034" stroke="#c9c9c9" stroke-width="1.2"/><text x="334" y="46" font-size="11" fill="#999" text-anchor="middle">-100</text><line x1="404" y1="54" x2="404" y2="1034" stroke="#e6e6e6" stroke-width="0.6"/><line x1="474" y1="54" x2="474" y2="1034" stroke="#c9c9c9" stroke-width="1.2"/><text x="474" y="46" font-size="11" fill="#999" text-anchor="middle">0</text><line x1="544" y1="54" x2="544" y2="1034" stroke="#e6e6e6" stroke-width="0.6"/><line x1="614" y1="54" x2="614" y2="1034" stroke="#c9c9c9" stroke-width="1.2"/><text x="614" y="46" font-size="11" fill="#999" text-anchor="middle">100</text><line x1="684" y1="54" x2="684" y2="1034" stroke="#e6e6e6" stroke-width="0.6"/><line x1="754" y1="54" x2="754" y2="1034" stroke="#c9c9c9" stroke-width="1.2"/><text x="754" y="46" font-size="11" fill="#999" text-anchor="middle">200</text><line x1="824" y1="54" x2="824" y2="1034" stroke="#e6e6e6" stroke-width="0.6"/><line x1="54" y1="54" x2="824" y2="54" stroke="#e6e6e6" stroke-width="0.6"/><line x1="54" y1="124" x2="824" y2="124" stroke="#c9c9c9" stroke-width="1.2"/><text x="44" y="128" font-size="11" fill="#999" text-anchor="end">-300</text><line x1="54" y1="194" x2="824" y2="194" stroke="#e6e6e6" stroke-width="0.6"/><line x1="54" y1="264" x2="824" y2="264" stroke="#c9c9c9" stroke-width="1.2"/><text x="44" y="268" font-size="11" fill="#999" text-anchor="end">-200</text><line x1="54" y1="334" x2="824" y2="334" stroke="#e6e6e6" stroke-width="0.6"/><line x1="54" y1="404" x2="824" y2="404" stroke="#c9c9c9" stroke-width="1.2"/><text x="44" y="408" font-size="11" fill="#999" text-anchor="end">-100</text><line x1="54" y1="474" x2="824" y2="474" stroke="#e6e6e6" stroke-width="0.6"/><line x1="54" y1="544" x2="824" y2="544" stroke="#c9c9c9" stroke-width="1.2"/><text x="44" y="548" font-size="11" fill="#999" text-anchor="end">0</text><line x1="54" y1="614" x2="824" y2="614" stroke="#e6e6e6" stroke-width="0.6"/><line x1="54" y1="684" x2="824" y2="684" stroke="#c9c9c9" stroke-width="1.2"/><text x="44" y="688" font-size="11" fill="#999" text-anchor="end">100</text><line x1="54" y1="754" x2="824" y2="754" stroke="#e6e6e6" stroke-width="0.6"/><line x1="54" y1="824" x2="824" y2="824" stroke="#c9c9c9" stroke-width="1.2"/><text x="44" y="828" font-size="11" fill="#999" text-anchor="end">200</text><line x1="54" y1="894" x2="824" y2="894" stroke="#e6e6e6" stroke-width="0.6"/><line x1="54" y1="963.9999999999999" x2="824" y2="963.9999999999999" stroke="#c9c9c9" stroke-width="1.2"/><text x="44" y="967.9999999999999" font-size="11" fill="#999" text-anchor="end">300</text><line x1="54" y1="1034" x2="824" y2="1034" stroke="#e6e6e6" stroke-width="0.6"/><line x1="474" y1="54" x2="474" y2="1034" stroke="#b04632" stroke-width="1.4" stroke-dasharray="4 3"/><line x1="54" y1="544" x2="824" y2="544" stroke="#b04632" stroke-width="1.4" stroke-dasharray="4 3"/><rect x="138" y="170.2" width="560" height="406" rx="6" fill="#3a3a3a" fill-opacity="0.92" stroke="#111" stroke-width="2"/><circle cx="418" cy="373.2" r="3" fill="#e9e9e9"/><text x="418" y="367.2" font-size="12.5" font-weight="700" fill="#e9e9e9" text-anchor="middle">COFFRET TSTAK</text><text x="418" y="385.2" font-size="10.5" fill="#e9e9e9" text-anchor="middle">(-40, -122) · 400×290mm</text><rect x="292" y="658.8" width="140" height="210" rx="6" fill="#2b2b2b" fill-opacity="0.92" stroke="#000" stroke-width="2"/><circle cx="362" cy="763.8" r="3" fill="#fff"/><text x="362" y="757.8" font-size="12.5" font-weight="700" fill="#fff" text-anchor="middle">CHARGEUR</text><text x="362" y="775.8" font-size="10.5" fill="#fff" text-anchor="middle">(-80, 157) · 100×150mm</text><rect x="443.2" y="719.6999999999999" width="84" height="118.99999999999999" rx="6" fill="#FEBD17" fill-opacity="0.92" stroke="#1a1a1a" stroke-width="2"/><circle cx="485.2" cy="779.1999999999999" r="3" fill="#1a1a1a"/><text x="485.2" y="773.1999999999999" font-size="12.5" font-weight="700" fill="#1a1a1a" text-anchor="middle">BATTERIE 1</text><text x="485.2" y="791.1999999999999" font-size="10.5" fill="#1a1a1a" text-anchor="middle">(8, 168) · 60×85mm</text><rect x="549.5999999999999" y="711.3" width="84" height="118.99999999999999" rx="6" fill="#FEBD17" fill-opacity="0.92" stroke="#1a1a1a" stroke-width="2"/><circle cx="591.5999999999999" cy="770.8" r="3" fill="#1a1a1a"/><text x="591.5999999999999" y="764.8" font-size="12.5" font-weight="700" fill="#1a1a1a" text-anchor="middle">BATTERIE 2</text><text x="591.5999999999999" y="782.8" font-size="10.5" fill="#1a1a1a" text-anchor="middle">(84, 162) · 60×85mm</text><rect x="658.8" y="754.6999999999999" width="100.8" height="163.79999999999998" rx="6" fill="#FEBD17" fill-opacity="0.92" stroke="#1a1a1a" stroke-width="2"/><circle cx="709.1999999999999" cy="836.5999999999999" r="3" fill="#1a1a1a"/><text x="709.1999999999999" y="830.5999999999999" font-size="12.5" font-weight="700" fill="#1a1a1a" text-anchor="middle">VISSEUSE (héros)</text><text x="709.1999999999999" y="848.5999999999999" font-size="10.5" fill="#1a1a1a" text-anchor="middle">(168, 209) · 72×117mm</text><text x="474" y="1074" font-size="13" font-weight="700" fill="#333" text-anchor="middle">▲ CAMÉRA PDP (azimut 25°, +Z vers l'objectif)</text><text x="824" y="30" font-size="12" fill="#666" text-anchor="end">Plan au sol DCF887P2 — mm · +X → droite · +Z ↓ (avant)</text></svg>